<svg xmlns="http://www.w3.org/2000/svg" width="120" height="120" viewBox="0 0 450 450" fill="none"><path fill="#484848" d="M135 275a2 2 0 0 1 2-2h176a2 2 0 0 1 2 2v108c0 11.046-8.954 20-20 20H155c-11.046 0-20-8.954-20-20V275Z"/><path fill="#FFDC25" d="M155 273c0-8.284 6.716-15 15-15h110c8.284 0 15 6.716 15 15H155ZM185 258c0-11.046 8.954-20 20-20h40c11.046 0 20 8.954 20 20h-80ZM207.653 221.42a10 10 0 0 1 9.874-8.42h14.275a10 10 0 0 1 9.806 8.039L245 238h-40l2.653-16.58Z"/><path fill="#FFDC25" d="M216.7 206.375a1 1 0 0 1 .781-.375h15.038a1 1 0 0 1 .781.375l3.243 4.054c.272.34.293.817.051 1.179l-1.297 1.947a1.001 1.001 0 0 1-.832.445h-18.93c-.334 0-.646-.167-.832-.445l-1.297-1.947a.999.999 0 0 1 .051-1.179l3.243-4.054Z"/><path fill="#FFDC25" d="M218 186h14v20h-14z"/><rect width="180" height="140" x="135" y="46" fill="#FFDC25" rx="8"/><rect width="14" height="65" x="218" y="62" fill="#fff" fill-opacity=".9" rx="7"/><rect width="10" height="65" x="257" y="62" fill="#fff" fill-opacity=".9" rx="5"/><rect width="10" height="65" x="183" y="62" fill="#fff" fill-opacity=".9" rx="5"/><rect width="8" height="65" x="150" y="62" fill="#fff" fill-opacity=".9" rx="4"/><rect width="8" height="65" x="292" y="62" fill="#fff" fill-opacity=".9" rx="4"/></svg>