<svg width="24" height="24" viewBox="0 0 24 24" fill="none" xmlns="http://www.w3.org/2000/svg">
<path fill-rule="evenodd" clip-rule="evenodd" d="M5.44614 11.5726C5.54329 10.2907 6.01839 9.06643 6.81136 8.05454C7.60433 7.04265 8.67955 6.28863 9.90105 5.88782C10.9346 5.54869 12.0336 5.47533 13.0975 5.67L12.4941 6.66986C12.4252 6.78415 12.5286 6.92482 12.6583 6.89304L16.506 5.94982C16.6196 5.92197 16.659 5.78059 16.5762 5.69796L13.7721 2.89951C13.6776 2.80521 13.5163 2.87204 13.5161 3.00552L13.5149 4.2229C12.1598 3.94858 10.7532 4.02951 9.43339 4.46259C7.93001 4.95589 6.60666 5.88391 5.6307 7.12931C4.65474 8.37471 4.07 9.88155 3.95043 11.4593C3.83086 13.037 4.18182 14.6148 4.95893 15.993C5.16237 16.3538 5.61979 16.4814 5.9806 16.278C6.34141 16.0745 6.46899 15.6171 6.26555 15.2563C5.63414 14.1365 5.34899 12.8545 5.44614 11.5726Z" fill="black"/>
<path fill-rule="evenodd" clip-rule="evenodd" d="M18.5629 12.2526C18.5 13.5366 18.0576 14.7732 17.2919 15.8058C16.5262 16.8385 15.4714 17.6209 14.261 18.0541C13.2369 18.4206 12.1402 18.5232 11.0715 18.357L11.648 17.3414C11.7139 17.2253 11.6068 17.0874 11.478 17.1227L7.65679 18.1681C7.54396 18.1989 7.50831 18.3413 7.59328 18.4217L10.471 21.1445C10.5679 21.2362 10.7274 21.1651 10.724 21.0317L10.6929 19.8147C12.0547 20.0528 13.4586 19.9344 14.7665 19.4664C16.2562 18.9332 17.5544 17.9702 18.4968 16.6993C19.4392 15.4283 19.9836 13.9064 20.0611 12.3261C20.1386 10.7457 19.7458 9.17789 18.9322 7.82081C18.7192 7.46555 18.2586 7.35021 17.9033 7.56318C17.548 7.77616 17.4327 8.23682 17.6457 8.59208C18.3067 9.6947 18.6259 10.9686 18.5629 12.2526Z" fill="black"/>
</svg>
