<svg width="24" height="24" viewBox="0 0 24 24" fill="none" xmlns="http://www.w3.org/2000/svg">
<path fill-rule="evenodd" clip-rule="evenodd" d="M16.5 13.5C17.3284 13.5 18 12.8284 18 12C18 11.1716 17.3284 10.5 16.5 10.5C15.6716 10.5 15 11.1716 15 12C15 12.8284 15.6716 13.5 16.5 13.5ZM19.4055 12.75C19.0725 14.0439 17.8979 15 16.5 15C15.1021 15 13.9275 14.0439 13.5945 12.75H13H3C2.58579 12.75 2.25 12.4142 2.25 12C2.25 11.5858 2.58579 11.25 3 11.25H13H13.5945C13.9275 9.95608 15.1021 9 16.5 9C17.8979 9 19.0725 9.95608 19.4055 11.25H20H21C21.4142 11.25 21.75 11.5858 21.75 12C21.75 12.4142 21.4142 12.75 21 12.75H20H19.4055Z" fill="currentColor"/>
<path fill-rule="evenodd" clip-rule="evenodd" d="M7.5 20.5C6.67158 20.5 6 19.8284 6 19C6 18.1716 6.67158 17.5 7.5 17.5C8.32843 17.5 9 18.1716 9 19C9 19.8284 8.32843 20.5 7.5 20.5ZM4.59452 19.75C4.92755 21.0439 6.10212 22 7.5 22C8.89788 22 10.0725 21.0439 10.4055 19.75H11H21C21.4142 19.75 21.75 19.4142 21.75 19C21.75 18.5858 21.4142 18.25 21 18.25H11H10.4055C10.0725 16.9561 8.89788 16 7.5 16C6.10212 16 4.92755 16.9561 4.59452 18.25H4H3C2.58579 18.25 2.25 18.5858 2.25 19C2.25 19.4142 2.58579 19.75 3 19.75H4H4.59452Z" fill="currentColor"/>
<path fill-rule="evenodd" clip-rule="evenodd" d="M7.5 6.5C6.67158 6.5 6 5.82843 6 5C6 4.17157 6.67158 3.5 7.5 3.5C8.32843 3.5 9 4.17157 9 5C9 5.82843 8.32843 6.5 7.5 6.5ZM4.59452 5.75C4.92755 7.04392 6.10212 8 7.5 8C8.89788 8 10.0725 7.04392 10.4055 5.75H11H21C21.4142 5.75 21.75 5.41421 21.75 5C21.75 4.58579 21.4142 4.25 21 4.25H11H10.4055C10.0725 2.95608 8.89788 2 7.5 2C6.10212 2 4.92755 2.95608 4.59452 4.25H4H3C2.58579 4.25 2.25 4.58579 2.25 5C2.25 5.41421 2.58579 5.75 3 5.75H4H4.59452Z" fill="currentColor"/>
</svg>
