<svg width="450" height="450" viewBox="0 0 450 450" fill="none" xmlns="http://www.w3.org/2000/svg">
<rect x="165" y="388" width="120" height="50" rx="2" fill="#484848"/>
<path d="M209 350C209 348.895 209.895 348 211 348H237C238.105 348 239 348.895 239 350V388H209V350Z" fill="#FFDC25"/>
<path d="M214 333H234V348H214V333Z" fill="#FFDC25"/>
<path d="M120.779 94.6115C122.179 93.6513 123.857 93.3262 125.55 93.2023L224 86V333H171.969C164.599 333 157.856 328.979 154.661 322.337C143.9 299.969 119.728 245.087 109.06 183.428C97.5789 117.071 114.464 98.9428 120.779 94.6115Z" fill="#FFDC25"/>
<path d="M222.5 63.8334V88.1111C212.9 81.3556 196 105 191 107.111C186 109.222 184.5 109.222 179 109.222C173.5 109.222 166 108.167 166 108.167C156 106.056 152.1 103.522 138.5 99.7222C121.5 94.9722 116 127.167 111.5 139.306C108.104 148.466 107.111 180.106 109.527 194.444C109.676 195.327 108.752 195.936 108.122 195.301C95.7292 182.812 93.0232 130.801 93.5 118.722C94 106.056 104.4 77.0278 116 66.4722C127.6 55.9167 191.667 60.4908 222.5 63.8334Z" fill="#FFDC25" stroke="white" stroke-width="4"/>
<path d="M222 62.7961V88.6511C215.342 84.6865 209.429 91.8171 204.904 98.6766L197.864 108.702C190.825 120.838 177.447 116.405 168.198 113.451C156.633 109.757 148.189 105.272 145.068 112.396C142.802 117.568 142.168 130.611 143.625 138.613C143.783 139.478 142.909 140.104 142.289 139.48C134.204 131.348 132.717 101.983 133.04 95.0477C133.387 87.6139 135.531 66.4861 145.068 58.0279C161.748 43.2349 200.617 60.8345 222 62.7961Z" fill="#FFDC25" stroke="white" stroke-width="4"/>
<path d="M195 189.972C195 196.676 182.912 202.111 168 202.111C153.088 202.111 141 196.676 141 189.972C141 183.268 149.088 179.417 164 179.417C178.912 179.417 188.5 175.194 195 189.972Z" fill="white"/>
<path d="M196.461 293.653C195.386 293.398 194.308 294.063 194.054 295.138C193.799 296.213 194.464 297.29 195.539 297.545L196.461 293.653ZM195.539 297.545C200.46 298.711 203.715 297.373 207.316 296.349C210.864 295.341 215.425 294.359 223.719 295.538L224.281 291.578C215.344 290.307 210.213 291.367 206.222 292.501C202.285 293.621 200.155 294.528 196.461 293.653L195.539 297.545Z" fill="white"/>
<path d="M127.625 160.346C126.711 159.725 125.467 159.962 124.846 160.875C124.225 161.789 124.462 163.033 125.375 163.654L127.625 160.346ZM213 256.5L211.764 258.073L211.842 258.134L211.926 258.187L213 256.5ZM125.375 163.654C129.075 166.17 134.717 166.749 140.815 166.557C147.026 166.361 154.223 165.333 161.401 164.194C168.631 163.046 175.83 161.788 182.226 161.075C188.684 160.356 193.977 160.241 197.471 161.199L198.529 157.342C194.223 156.161 188.241 156.38 181.783 157.1C175.264 157.826 167.907 159.111 160.774 160.243C153.589 161.383 146.618 162.371 140.688 162.559C134.645 162.75 130.175 162.08 127.625 160.346L125.375 163.654ZM197.471 161.199C204.532 163.136 207.842 167.551 209.464 172.149C211.13 176.874 211 181.755 211 184.5H215C215 181.896 215.17 176.303 213.236 170.819C211.258 165.209 207.068 159.684 198.529 157.342L197.471 161.199ZM213 184.5C211 184.5 211 184.5 211 184.5C211 184.5 211 184.5 211 184.501C211 184.501 211 184.502 211 184.503C211 184.505 211 184.509 211 184.513C211 184.523 211 184.537 211 184.556C211 184.594 211 184.651 211 184.726C210.999 184.876 210.998 185.098 210.996 185.386C210.992 185.962 210.985 186.799 210.969 187.841C210.938 189.924 210.876 192.821 210.751 196.078C210.502 202.622 210.005 210.507 209.029 216.16L212.971 216.84C213.995 210.905 214.498 202.79 214.749 196.231C214.874 192.936 214.937 190.006 214.969 187.9C214.984 186.847 214.992 185.999 214.996 185.413C214.998 185.12 214.999 184.893 215 184.739C215 184.661 215 184.602 215 184.562C215 184.542 215 184.527 215 184.516C215 184.511 215 184.507 215 184.505C215 184.503 215 184.502 215 184.501C215 184.501 215 184.501 215 184.5C215 184.5 215 184.5 213 184.5ZM209.029 216.16C208.056 221.8 205.978 228.408 204.088 234.572C203.152 237.623 202.262 240.568 201.608 243.164C200.962 245.725 200.5 248.111 200.5 250H204.5C204.5 248.639 204.851 246.662 205.486 244.142C206.113 241.658 206.973 238.807 207.912 235.745C209.772 229.681 211.944 222.789 212.971 216.84L209.029 216.16ZM200.5 250C200.5 251.632 200.679 253.225 201.672 254.325C202.724 255.49 204.225 255.566 204.983 255.62C205.932 255.688 206.798 255.712 207.878 256.007C208.925 256.294 210.217 256.857 211.764 258.073L214.236 254.927C212.283 253.393 210.512 252.581 208.934 252.149C207.389 251.726 206.068 251.687 205.267 251.63C204.275 251.559 204.463 251.448 204.64 251.644C204.759 251.775 204.5 251.618 204.5 250H200.5ZM211.926 258.187C214.777 260.002 216.932 260.989 218.869 261.497C220.816 262.008 222.429 262 224 262V258C222.409 258 221.273 257.992 219.885 257.628C218.488 257.261 216.723 256.498 214.074 254.813L211.926 258.187Z" fill="white"/>
<path d="M327.221 94.6115C325.821 93.6513 324.143 93.3262 322.45 93.2023L224 86V333H276.031C283.401 333 290.144 328.979 293.339 322.337C304.1 299.969 328.272 245.087 338.94 183.428C350.421 117.071 333.536 98.9428 327.221 94.6115Z" fill="#FFDC25"/>
<path d="M225.5 63.8334V88.1111C235.1 81.3556 252 105 257 107.111C262 109.222 263.5 109.222 269 109.222C274.5 109.222 282 108.167 282 108.167C292 106.056 295.9 103.522 309.5 99.7222C326.5 94.9722 332 127.167 336.5 139.306C339.896 148.466 340.889 180.106 338.473 194.444C338.324 195.327 339.248 195.936 339.878 195.301C352.271 182.812 354.977 130.801 354.5 118.722C354 106.056 343.6 77.0278 332 66.4722C320.4 55.9167 256.333 60.4908 225.5 63.8334Z" fill="#FFDC25" stroke="white" stroke-width="4"/>
<path d="M226 62.7961V88.6511C232.658 84.6865 238.571 91.8171 243.096 98.6766L250.136 108.702C257.175 120.838 270.553 116.405 279.802 113.451C291.367 109.757 299.811 105.272 302.932 112.396C305.198 117.568 305.832 130.611 304.375 138.613C304.217 139.478 305.091 140.104 305.711 139.48C313.796 131.348 315.283 101.983 314.96 95.0477C314.613 87.6139 312.469 66.4861 302.932 58.0279C286.252 43.2349 247.383 60.8345 226 62.7961Z" fill="#FFDC25" stroke="white" stroke-width="4"/>
<path d="M253 189.972C253 196.676 265.088 202.111 280 202.111C294.912 202.111 307 196.676 307 189.972C307 183.268 298.912 179.417 284 179.417C269.088 179.417 259.5 175.194 253 189.972Z" fill="white"/>
<path d="M251.539 293.653C252.614 293.398 253.692 294.063 253.946 295.138C254.201 296.213 253.536 297.29 252.461 297.545L251.539 293.653ZM252.461 297.545C247.54 298.711 244.285 297.373 240.684 296.349C237.136 295.341 232.575 294.359 224.281 295.538L223.719 291.578C232.656 290.307 237.787 291.367 241.778 292.501C245.715 293.621 247.845 294.528 251.539 293.653L252.461 297.545Z" fill="white"/>
<path d="M320.375 160.346C321.289 159.725 322.533 159.962 323.154 160.875C323.775 161.789 323.538 163.033 322.625 163.654L320.375 160.346ZM235 256.5L236.236 258.073L236.158 258.134L236.074 258.187L235 256.5ZM322.625 163.654C318.925 166.17 313.283 166.749 307.185 166.557C300.974 166.361 293.777 165.333 286.599 164.194C279.369 163.046 272.17 161.788 265.774 161.075C259.316 160.356 254.023 160.241 250.529 161.199L249.471 157.342C253.777 156.161 259.759 156.38 266.217 157.1C272.736 157.826 280.093 159.111 287.226 160.243C294.411 161.383 301.382 162.371 307.312 162.559C313.355 162.75 317.825 162.08 320.375 160.346L322.625 163.654ZM250.529 161.199C243.468 163.136 240.158 167.551 238.536 172.149C236.87 176.874 237 181.755 237 184.5H233C233 181.896 232.83 176.303 234.764 170.819C236.742 165.209 240.932 159.684 249.471 157.342L250.529 161.199ZM235 184.5C237 184.5 237 184.5 237 184.5C237 184.5 237 184.5 237 184.501C237 184.501 237 184.502 237 184.503C237 184.505 237 184.509 237 184.513C237 184.523 237 184.537 237 184.556C237 184.594 237 184.651 237 184.726C237.001 184.876 237.002 185.098 237.004 185.386C237.008 185.962 237.015 186.799 237.031 187.841C237.062 189.924 237.124 192.821 237.249 196.078C237.498 202.622 237.995 210.507 238.971 216.16L235.029 216.84C234.005 210.905 233.502 202.79 233.251 196.231C233.126 192.936 233.063 190.006 233.031 187.9C233.016 186.847 233.008 185.999 233.004 185.413C233.002 185.12 233.001 184.893 233 184.739C233 184.661 233 184.602 233 184.562C233 184.542 233 184.527 233 184.516C233 184.511 233 184.507 233 184.505C233 184.503 233 184.502 233 184.501C233 184.501 233 184.501 233 184.5C233 184.5 233 184.5 235 184.5ZM238.971 216.16C239.944 221.8 242.022 228.408 243.912 234.572C244.848 237.623 245.738 240.568 246.392 243.164C247.038 245.725 247.5 248.111 247.5 250H243.5C243.5 248.639 243.149 246.662 242.514 244.142C241.887 241.658 241.027 238.807 240.088 235.745C238.228 229.681 236.056 222.789 235.029 216.84L238.971 216.16ZM247.5 250C247.5 251.632 247.321 253.225 246.328 254.325C245.276 255.49 243.775 255.566 243.017 255.62C242.068 255.688 241.202 255.712 240.122 256.007C239.075 256.294 237.783 256.857 236.236 258.073L233.764 254.927C235.717 253.393 237.488 252.581 239.066 252.149C240.611 251.726 241.932 251.687 242.733 251.63C243.725 251.559 243.537 251.448 243.36 251.644C243.241 251.775 243.5 251.618 243.5 250H247.5ZM236.074 258.187C233.223 260.002 231.068 260.989 229.131 261.497C227.184 262.008 225.571 262 224 262V258C225.591 258 226.727 257.992 228.115 257.628C229.512 257.261 231.277 256.498 233.926 254.813L236.074 258.187Z" fill="white"/>
</svg>
