<svg width="450" height="450" viewBox="0 0 450 450" fill="none" xmlns="http://www.w3.org/2000/svg">
<path d="M173.5 45C183.833 45 208 44.6 222 43C225.667 42.1666 234.5 40.8 240.5 42C234.667 43.1666 222 43 210 53.5C207.5 56 193.172 53.1115 184 52.5C169 51.5 160.308 59 159 67.5C158.667 69.6667 158.6 74.6 161 79C160.5 82.6666 160.3 90.9999 163.5 95C164.667 87.5 173.8 72.7 191 73.5C201.97 74.0102 210.454 82.9515 225.378 65.6413C222.838 68.4775 212.957 72.6879 192.5 66C171.7 59.2 165.167 68.1667 164.5 73.5C164.667 67 174.666 53.0553 197 60.5C216.5 67 229.333 54 231.5 49C233.167 52.8333 234.2 61.8 233 67C231.5 73.5 243.687 49.3558 244.5 48C246 45.5 254.5 38 249 57.5C244.6 73.1 235.167 80.3333 231 82C228.167 84.1667 218.2 88.1 201 86.5C205.5 89.3333 217.5 94.3 229.5 91.5C241.5 88.7 248.833 80.6666 251 77C253.667 72.3333 260 60 260.5 45C273.333 47.5 303.9 52.2 317.5 51C314.5 52.8333 303.1 56.1 281.5 54.5C282.833 57.8333 289.2 64.2 304 63C302.667 65.1666 297.1 69.4 285.5 69C284.667 72.1666 287.4 78.6 305 79C293 93 276.333 83.5 269.5 77C271.9 83 276.167 88.1666 278 90C281.5 93.5 288.5 96 297.5 93C306.5 90 310 83.5 316.5 84.5C323 85.5 325 87.5 326 95C326.8 101 318.667 106.167 314.5 108C323.7 93.2 314 93.5 308 95.5C304.5 97.1666 294.9 100.6 284.5 101C274.1 101.4 267.833 97.8333 266 96C264.667 93.8333 260.3 89.5 253.5 89.5C245 89.5 201.5 103 198.5 124.5C195.5 146 194 144 191 153.5C188.6 161.1 192.667 162 195 161.5C211.333 157 245.9 150.1 253.5 158.5C261.1 166.9 260.667 176 259.5 179.5L256 173.5C250 165.5 247 174 246.5 178.5C246.1 182.1 245.667 184 245.5 184.5C244 188 239.7 196.3 234.5 201.5C228 208 229.5 216.5 229.5 220C229.5 223.5 236.5 231.5 237.5 240.5C238.3 247.7 237.167 251.167 236.5 252C235.833 253.333 234.1 256.7 232.5 259.5C230.9 262.3 230.833 265 231 266C231.333 267.167 232.5 269.9 234.5 271.5C236.5 273.1 240.667 272.833 242.5 272.5C244.667 271.667 250.6 270.5 257 272.5C265 275 262 267 261 262.5C260.2 258.9 261.333 215.667 262 194.5C264.167 199 268.5 214.4 268.5 240C268.5 265.6 275.167 272.333 278.5 272.5C279.5 272.833 282.5 273.5 286.5 273.5C290.5 273.5 293.167 267.167 294 264C296 266.167 298.8 271.5 294 275.5C289.2 279.5 285 286.5 283.5 289.5C282.167 293 278.6 300.5 275 302.5C271.4 304.5 265.5 303 263 302C261.333 301.167 257.1 298.3 253.5 293.5C249.9 288.7 244.667 287.5 242.5 287.5C239.5 288 232.3 288.7 227.5 287.5C222.7 286.3 220.833 283 220.5 281.5C220.167 281.167 219.8 278.4 221 270C222.2 261.6 219.5 255.5 218 253.5C215.167 248.833 207.8 239.6 201 240C192.5 240.5 183 239 180.5 237C178.5 235.4 173.667 236.333 171.5 237C165.167 239.833 154.6 249.5 163 265.5C171.4 281.5 176.833 302.5 178.5 311C179.167 317.667 181.2 332.3 184 337.5C186.8 342.7 191.5 342.667 193.5 342C194.833 341.5 197.7 339.6 198.5 336C199.3 332.4 197.833 327.167 197 325C195.833 321.833 195.5 313.6 203.5 306C211.5 298.4 217.167 304.5 219 308.5C220.667 309.667 227.151 310.8 239.753 306C252.356 301.2 260.502 303 263 304.5C265 306.5 270.6 309.6 277 306C283.4 302.4 290.333 305.167 293 307C296.667 308.833 304.7 311.1 307.5 305.5C310.3 299.9 311.667 303.5 312 306C312.167 310.167 311.7 319.5 308.5 323.5C305.3 327.5 302.833 325.5 302 324C300 320.667 295.2 314 292 314C288.8 314 274.333 313.667 267.5 313.5C255.1 312.3 250.333 316 249.5 318C245.9 328.4 250.667 331.667 253.5 332C256.333 332.333 264.5 332.6 274.5 331C284.5 329.4 289 331 290 332C290.5 332.333 291.4 333.4 291 335C290.6 336.6 289.5 338.333 289 339C287.667 340.333 284.2 343.3 281 344.5C277.8 345.7 267 346.333 262 346.5C257.167 346.5 244.5 345.5 232.5 341.5C220.5 337.5 214.167 340.5 212.5 342.5C211.5 344.167 210.4 348.1 214 350.5C217.6 352.9 218.833 358.833 219 361.5C218.6 372.7 223.167 382.167 225.5 385.5C229.167 389 238.3 395.6 245.5 394C252.7 392.4 263.167 391.667 267.5 391.5C276 391 285.5 394 294 386.5C300.8 380.5 305.833 372 307.5 368.5C309.833 363.667 315.4 349.4 319 331C323.5 308 332 288 336.5 277.5C341 267 345.5 242.5 345.5 238C345.5 234.4 344.833 220.5 344.5 214C344.667 212.167 344.2 208.6 341 209C337.8 209.4 334.667 213.833 333.5 216L334 213C334.5 211 335.7 206.6 336.5 205C337.3 203.4 335.833 204.333 335 205C331.833 207.667 324.4 212.9 320 212.5C315.6 212.1 313.5 210.667 313 210C310.833 207.5 306.2 203.6 305 208C303.8 212.4 313.833 217.167 319 219C315.5 220.167 306.6 221.2 299 216C291.4 210.8 289.5 213.167 289.5 215V246.5C288.333 235.667 284.8 209.1 280 189.5C275.2 169.9 277.333 162.667 279 161.5C282.833 157.5 296.2 151.3 319 158.5C341.8 165.7 348.833 164.167 349.5 162.5C353.5 128.9 344.833 114.167 340 111C336 114.333 326.6 120.9 321 120.5C315.4 120.1 310 123 308 124.5C306.4 117.7 324 111.333 333 109C349.4 97.8 346.167 77.6666 342.5 69C345.167 70.5 350.9 75.8 352.5 85C354.1 94.2 356.5 107.5 357.5 113C352.7 109.4 349.833 101.833 349 98.5L348 102.5C346.8 110.5 349.167 113.5 350.5 114C359.7 121.6 360.667 128.5 360 131C364.8 113.8 361.5 95.8333 359 89C362.6 91 364.833 95.1666 365.5 97C366.5 101.167 368.1 110.2 366.5 113C364.9 115.8 364.5 123.167 364.5 126.5C365.3 155.3 358.167 164.833 354.5 166C354.1 170.8 353.667 172.667 353.5 173C345.9 189.4 347 220.833 348.5 234.5C348.833 242.333 348.1 261.7 342.5 276.5C336.9 291.3 327.167 326.333 323 342C321 354.833 312.7 383.4 295.5 395C278.3 406.6 239.333 408.5 222 408C203.167 407.333 162.7 404.5 151.5 398.5C140.3 392.5 130.5 372.333 127 363C121 348 108.2 312.5 105 290.5C101.8 268.5 93.3333 246.333 89.5 238C87 229.667 82.7 210.2 85.5 199C88.3 187.8 88 177 87.5 173C80.7 129.4 87.3334 104.167 91.5 97C92.6667 93.1666 99 81.5 115 65.5C120.333 60.6666 132.7 50.8 139.5 50C132.333 54.6667 119 67 118 77C117.502 81.9789 117.8 92.4 121 100C124.2 107.6 131.5 108.667 134 108.5C130.5 106.5 124.5 102 124 91L124.5 79C125.5 89 132 112 152 110.5C155.333 115.667 165 124.2 177 117C170.167 113.833 155.3 103.3 150.5 86.5C145.7 69.7 149.5 59.5 152 56.5C153.333 54.8333 157.7 51.1 164.5 49.5C159.667 49.3333 147.9 51.5 139.5 61.5C131.1 71.5 140.667 94.3333 146.5 104.5C140.333 101.667 128.7 91.3 131.5 72.5C134.3 53.7 149.333 47 156.5 46L173.5 45Z" fill="#FFDC25"/>
<path d="M172.5 106C168.5 96.5 166.8 79.3 192 86.5C185.333 86.6667 172.1 90.8 172.5 106Z" fill="white"/>
<path d="M126 302C96.8 239.6 106.167 212.333 114.5 206.5C113.3 221.7 118.667 233.167 121.5 237C137.9 253.8 144.667 282 146 294L151 343.5C152.5 351.5 156.8 369 162 375C167.2 381 164.833 382.5 163 382.5C145.4 378.9 139 357.333 138 347C138.8 333 130.333 311.167 126 302Z" fill="white"/>
<path d="M219.5 321.5C214.7 317.1 219.5 314.667 222.5 314L230.5 313.5C232.667 313.333 237.2 313.6 238 316C238.8 318.4 234.333 322 232 323.5C229.833 324.667 224.3 325.9 219.5 321.5Z" fill="white"/>
<path d="M332 93.5C348.4 58.7 324.833 56.6667 311 60C315.167 60 324 61.4 326 67C323 67 316.1 68.2 312.5 73C319.833 71 334 72.3001 332 93.5Z" fill="#FFDC25"/>
<path d="M318 178.5C311.6 178.9 302.667 186.667 299 190.5C309.333 184.5 332.5 176 342.5 190C343.5 187.5 343.5 186 341.5 182.5C335 177 334 177 331 176C328 175 321.5 175.5 319 176C317 176.4 317.5 177.833 318 178.5Z" fill="white"/>
<path d="M318 194.5C313.6 186.9 321.833 184.667 326.5 184.5C328.667 184.667 333.6 185.5 336 187.5C338.4 189.5 337 193 336 194.5C334.833 196.833 332.4 202.1 332 204.5C331.6 206.9 327.833 207.833 326 208C323.333 207.667 318.2 206.1 319 202.5C319.8 198.9 318.667 195.667 318 194.5Z" fill="white"/>
<path d="M173 184.5C185.833 174 214.2 160.3 225 189.5C221.333 182.5 205.8 171.7 173 184.5Z" fill="white"/>
<path d="M221.5 194C203.1 176.8 178.5 186.833 168.5 194C168 194.333 167 195.5 167 197.5C167 200 168.5 201 174 205C178.4 208.2 189.5 210.667 194.5 211.5C198.5 211.5 208.5 210.4 216.5 206C224.5 201.6 223.167 196.167 221.5 194Z" fill="white"/>
<path d="M108.5 83.9999C96.9 87.1999 93 113.333 92.5 126C94.3333 120.167 100.3 106.3 109.5 97.4999C110.5 96.6666 112.1 93.5999 110.5 87.9999C110.167 86.5535 109.3 83.7284 108.5 83.9999Z" fill="white"/>
<path d="M163 201C166.5 206.167 178.6 216.8 199 218C179 234.4 166.667 213.5 163 201Z" fill="white"/>
<path d="M97.5 131.5C99.5 114.7 110 108.833 115 108C118.2 107.2 113.667 113.333 111 116.5C100.2 126.9 102.5 145.833 105 154C106.5 158.5 111.3 166 106.5 174C101.7 182 99.8333 192.667 99.5 197C111.1 181.8 112.333 169.667 111.5 165.5C110.833 162.833 109.2 154.4 108 142C106.8 129.6 113.5 122.5 117 120.5C119.667 119.667 123.9 120 119.5 128C114 138 116 147 118.5 161C120.5 172.2 116.333 181.333 114 184.5C97.6 202.5 97.5 224 99.5 232.5C88.3 208.1 96.1666 183.667 101.5 174.5C104.5 168 103.441 164.5 102 161C98.5 152.5 95.5 148.3 97.5 131.5Z" fill="white"/>
<path d="M146 146C136.5 153.5 136 157 136.5 162C138 167.5 142.4 168.3 146 169.5C149.6 170.7 166.833 166 175 163.5C176.5 161.5 177 160.6 177 147C177 133.4 171.333 128.667 168.5 128C164.5 127.167 156 127.2 154 134C152 140.8 148.5 143.5 146 146Z" fill="white"/>
</svg>
