<svg xmlns="http://www.w3.org/2000/svg" width="120" height="120" viewBox="0 0 450 450" fill="none"><path fill="#FFDC25" fill-rule="evenodd" d="M223.421 33c-23.237 0-59.471.208-91.225 9.125-31.822 8.937-59.276 26.665-64.528 61.804-.598 1.817-1.136 5.174-1.431 10.27-.298 5.144-.35 12.093.047 21.083.792 17.98 3.376 44.14 9.375 80.385 11.986 72.418 20.983 107.417 24.003 115.912 2.178 7.985 7.042 20.558 14.57 32.386 7.527 11.827 17.759 22.974 30.698 27.988 12.861 4.985 28.661 7.493 43.159 8.758 14.406 1.257 27.563 1.289 35.332 1.289M132.479 43.04c31.595-8.873 67.69-9.086 90.942-9.087h.079c23.249 0 59.39.204 91.021 9.087 31.66 8.89 58.669 26.431 63.827 61.062l.006.039.013.038c.563 1.688 1.102 4.955 1.398 10.073.296 5.105.348 12.022-.047 20.99-.79 17.934-3.37 44.057-9.365 80.277-11.994 72.466-20.984 107.39-23.967 115.77l-.006.016-.005.017c-2.155 7.907-6.985 20.401-14.461 32.148-7.482 11.756-17.573 22.698-30.221 27.6-12.726 4.932-28.41 7.429-42.873 8.691-14.407 1.257-27.565 1.285-35.32 1.286h-.079c-7.766-.001-20.883-.033-35.241-1.286-14.463-1.262-30.147-3.759-42.873-8.691-12.648-4.902-22.739-15.844-30.221-27.6-7.476-11.747-12.306-24.241-14.461-32.148l-.005-.017-.006-.016c-2.983-8.38-11.973-43.304-23.967-115.77-5.995-36.22-8.575-62.343-9.365-80.277-.395-8.968-.343-15.885-.047-20.99.296-5.118.835-8.385 1.398-10.073l.013-.038.006-.039c5.157-34.63 32.167-52.172 63.827-61.062Z" clip-rule="evenodd"/><path fill="#FFDC25" d="M223.579 33c23.237 0 59.471.208 91.225 9.125 31.822 8.937 59.276 26.665 64.528 61.804.598 1.817 1.136 5.174 1.431 10.27.298 5.144.35 12.093-.047 21.083-.792 17.98-3.376 44.14-9.375 80.385-11.987 72.418-20.983 107.417-24.003 115.912-2.178 7.985-7.042 20.558-14.57 32.386-7.527 11.827-17.759 22.974-30.698 27.988-12.861 4.985-28.661 7.493-43.159 8.758-14.406 1.257-27.563 1.289-35.332 1.289M223.579 33h-.079.079ZM223.421 401.047V33.953c-23.252.001-59.347.214-90.942 9.087-31.66 8.89-58.67 26.431-63.827 61.062l-.006.039-.013.038c-.563 1.688-1.102 4.955-1.398 10.073-.296 5.105-.348 12.022.047 20.99.79 17.934 3.37 44.057 9.365 80.277 11.994 72.466 20.984 107.39 23.967 115.77l.006.016.005.017c2.155 7.907 6.985 20.401 14.461 32.148 7.482 11.756 17.573 22.698 30.221 27.6 12.726 4.932 28.41 7.429 42.873 8.691 14.358 1.253 27.475 1.285 35.241 1.286Z"/><path fill="#fff" d="M179.552 192.336c3.163 2.795 3.324 7.679.382 10.705C171.708 211.502 164.824 215 147.5 215c-17.451 0-27.858-6.035-34.291-13.319a6.375 6.375 0 0 1-.047-8.4c7.38-8.531 17.845-12.413 34.338-13.281 15.226 1.269 22.581 3.969 32.052 12.336ZM334.552 192.336c3.163 2.795 3.324 7.679.382 10.705C326.708 211.502 319.824 215 302.5 215c-17.451 0-27.858-6.035-34.291-13.319a6.375 6.375 0 0 1-.047-8.4c7.38-8.531 17.845-12.413 34.338-13.281 15.226 1.269 22.581 3.969 32.052 12.336ZM203.515 40c-18.572 4.407-25.77 14.264-27.832 21.431-.303 1.056 1.274 1.54 2.038.75 4.284-4.43 11.984-6.494 18.801-7.292-2.649 3.067-5.993 6.734-10.473 11.142-1.109 1.091-.58 2.708.968 2.54 6.648-.716 21.216-5.221 46.241-19.566.956-.548 2.162-.208 2.385.872.534 2.591.541 7.27-1.438 14.18-.55 1.919 1.535 3.42 2.983 2.047 4.111-3.9 9.279-9.698 13.474-16.786.819-1.384 2.599-1.278 2.828.315 1.12 7.788.05 26.338-9.559 60.767-.593 2.126 1.907 3.382 3.088 1.518 4.834-7.623 10.186-17.827 14.238-29.39 6.159 3.765 16.988 7.553 33.258 7.06 3.179-.176 8.294 1.05 3.317 7.365-3.191 3.494-10.74 9.869-19.945 13.267-1.12.414-.939 2.5.255 2.475 18.332-.394 47.947-7.064 67.481-32.173 5.193-6.106-7.418-18.96-20.851-18.714-3.72.18-13.429-1.042-23.544-7.182-.631-.383-1.45.002-1.446.74.034 6.867 5.342 18.006 27.09 18.063.357 0 .704.184.851.51 1.775 3.933.1 12.334-19.402 18.63a1.024 1.024 0 0 1-1.291-.69c-2.356-8.136-9.496-21.457-21.617-16.623-3.928 2.103-13.143 5.257-23.088 4.095 4.094-12.704 6.489-26.855 4.915-40.93a1.954 1.954 0 0 0-2.163-1.715l-.865.094c-8.707.948-20.106 2.19-25.72-.085a2.322 2.322 0 0 0-1.049-.168c-10.716.908-17.374 1.574-21.997 2.642.451-1.145.838-2.25 1.167-3.294.341-1.079-1.601-2-2.477-1.284-3.528 2.884-8.104 4.702-10.621 5.389ZM155.859 44.45c-9.953 3.133-29.154 18.046-18.962 57.236.585 2.249 3.741 1.636 3.731-.688-.011-2.526.063-4.915.267-6.86.181-1.722 1.793-1.618 2.471-.023 2.874 6.761 10.44 17.664 26.123 29.728 1.912 1.47 4.151-1.281 2.605-3.133-16.116-19.307-14.582-31.813-12.902-45.5l.13-1.066c9.261 21.022 33.864 27.647 49.07 27.973-29.655-4.746-43.183-26.981-48.311-45.443a57.28 57.28 0 0 0-1.974-10.927c-.276-.984-1.272-1.605-2.248-1.298ZM106.693 111.299c-21.775 2.419-36.296 62.005-21.752 104.016.788 2.276 3.901 1.047 3.538-1.334-3.248-21.266-.104-50.16 25.915-69.352 25.467-18.785 21.696-25.996 16.944-35.084-1.811-3.464-3.765-7.201-4.297-11.955-.033 1.693.135 3.453.313 5.318 1.025 10.709 2.381 24.88-32.246 49.69-1.202.861-2.875.162-2.923-1.315-.276-8.602 2.578-23.966 15.579-37.042 1.163-1.169.568-3.124-1.071-2.942Z"/><path fill="#fff" d="M186.683 88.431c2.062-7.167 9.26-17.024 27.832-21.431 2.517-.687 7.093-2.505 10.621-5.39.876-.716 2.818.206 2.477 1.285-1.735 5.497-5.093 12.743-10.794 18.311a.982.982 0 0 1-.72.28c-7.405-.215-21.081 1.183-27.378 7.694-.764.79-2.341.307-2.038-.749ZM360.555 186.691c3.407-19.251-3.896-31.92-10.964-44.183-5.787-10.038-11.416-19.804-10.884-32.685.043-1.049 1.448-1.232 1.847-.261 5.386 13.102 13.005 20.91 17.831 24.363.769.55 1.681-.249 1.378-1.144-5.226-15.451-1.248-41.233 2.197-55.581.241-1.003 1.622-.961 1.858.043 13.234 56.23 5.72 93.701-1.685 110.083-.47 1.038-1.776.487-1.578-.635ZM170 334.5c3 15 91 29.5 104.5-1-16.994 3.05-27.045.256-34.696-1.871-6.395-1.777-11.112-3.089-16.804-.129-6.855-3.428-18.497-1.307-29.891.768-8.552 1.557-16.964 3.09-23.109 2.232ZM90.985 100.932C93.409 88.665 98.138 76.069 106.426 75c1 0 3.5.7 5.5 3.5 1.23 1.723 1.641 2.903 1.697 3.634.044.578-.531.826-1.108.882-3.926.385-11.068 4.765-17.746 18.845-1.014 2.139-4.243 1.392-3.784-.929Z"/><path stroke="#fff" stroke-width="2" d="M274.5 333.5c-13.5 30.5-101.5 16-104.5 1m104.5-1c-16.994 3.05-27.045.256-34.696-1.871-6.395-1.777-11.112-3.089-16.804-.129-6.855-3.428-18.497-1.307-29.891.768-8.552 1.557-16.964 3.09-23.109 2.232m104.5-1c-20.5-24.5-35-24-51.5-22-28.8-6-46.833 15.5-53 23m5.683-273.069c2.062-7.167 9.26-17.024 27.832-21.431 2.517-.687 7.093-2.505 10.621-5.39.876-.716 2.818.206 2.477 1.285a50.382 50.382 0 0 1-1.167 3.294c4.623-1.068 11.281-1.734 21.997-2.642.352-.03.722.036 1.049.168 5.614 2.275 17.013 1.033 25.72.085l.865-.094a1.954 1.954 0 0 1 2.163 1.716c1.574 14.074-.821 28.225-4.915 40.93 9.945 1.16 19.16-1.993 23.088-4.096 12.121-4.834 19.261 8.487 21.617 16.624.159.55.747.865 1.291.69 19.502-6.297 21.177-14.698 19.402-18.631-.147-.326-.494-.51-.851-.51-21.748-.057-27.056-11.196-27.09-18.063-.004-.739.815-1.123 1.446-.74 10.115 6.14 19.824 7.362 23.544 7.182 13.433-.245 26.044 12.608 20.851 18.714-19.534 25.109-49.149 31.779-67.481 32.173-1.194.025-1.375-2.061-.255-2.475 9.205-3.398 16.754-9.773 19.945-13.267 4.977-6.314-.138-7.541-3.317-7.365-16.27.493-27.099-3.295-33.258-7.06-4.052 11.563-9.404 21.767-14.238 29.39-1.181 1.864-3.681.608-3.088-1.518 9.609-34.429 10.679-52.98 9.559-60.767-.229-1.593-2.009-1.7-2.828-.315-4.195 7.088-9.363 12.887-13.474 16.786-1.448 1.373-3.533-.128-2.983-2.047 1.979-6.91 1.972-11.589 1.438-14.18-.223-1.08-1.429-1.42-2.385-.872-25.025 14.345-39.593 18.85-46.241 19.567-1.548.167-2.077-1.45-.968-2.541 4.48-4.408 7.824-8.075 10.473-11.143-6.817.8-14.517 2.863-18.801 7.292-.764.79-2.341.307-2.038-.749Zm-38.786 40.255c-10.192-39.19 9.009-54.103 18.962-57.237.976-.307 1.972.314 2.248 1.298a57.28 57.28 0 0 1 1.974 10.927c5.128 18.462 18.656 40.697 48.311 45.443-15.206-.326-39.809-6.951-49.07-27.974l-.13 1.067c-1.68 13.687-3.214 26.193 12.902 45.5 1.546 1.852-.693 4.603-2.605 3.133-15.683-12.064-23.249-22.967-26.123-29.728-.678-1.595-2.29-1.7-2.471.024-.204 1.944-.278 4.333-.267 6.859.01 2.324-3.146 2.937-3.731.688ZM84.941 215.315c-14.544-42.011-.023-101.597 21.752-104.016 1.639-.182 2.234 1.773 1.071 2.942-13 13.076-15.855 28.44-15.579 37.042.048 1.477 1.72 2.176 2.923 1.315 34.627-24.81 33.271-38.981 32.246-49.69-.178-1.865-.346-3.625-.313-5.318.532 4.754 2.486 8.491 4.297 11.955 4.752 9.088 8.523 16.299-16.944 35.084-26.019 19.192-29.163 48.086-25.915 69.352.363 2.381-2.75 3.61-3.538 1.334ZM214.515 67c-18.572 4.407-25.77 14.264-27.832 21.431-.303 1.056 1.274 1.54 2.038.75 6.297-6.511 19.973-7.91 27.378-7.695a.982.982 0 0 0 .72-.28c5.701-5.568 9.059-12.814 10.794-18.31.341-1.08-1.601-2.002-2.477-1.285-3.528 2.884-8.104 4.702-10.621 5.389Zm135.076 75.508c7.068 12.263 14.371 24.932 10.964 44.183-.198 1.122 1.108 1.673 1.578.635 7.405-16.382 14.919-53.853 1.685-110.083-.236-1.004-1.617-1.046-1.858-.043-3.445 14.348-7.423 40.13-2.197 55.581.303.895-.609 1.694-1.378 1.144-4.826-3.453-12.445-11.261-17.831-24.363-.399-.971-1.804-.788-1.847.261-.532 12.881 5.097 22.647 10.884 32.685ZM106.426 75c-8.288 1.07-13.017 13.665-15.441 25.932-.459 2.321 2.77 3.068 3.784.929 6.678-14.08 13.82-18.46 17.746-18.845.577-.056 1.152-.304 1.108-.882-.056-.731-.467-1.911-1.697-3.634-2-2.8-4.5-3.5-5.5-3.5Z"/><path stroke="#fff" stroke-linecap="round" stroke-width="3" d="M100.5 169.5c6.333-.333 21.977.559 36-3.5 19-5.5 50.5-10 68-3.5 1.333.333 4.2 1.9 5 5.5 1 4.5 5.5 21.5 5.5 41 0 15.6-3.333 30.167-5 35.5-2.5 7.333-9.7 24.4-18.5 34-1 1.167-1.9 4.1 2.5 6.5 4.4 2.4 10.5 2.333 13 2 .667-.167 2.8-.4 6 0 4 .5 7.5 2.5 15.5 2.5 6.4 0 12-1.667 14-2.5 2.167-.333 7.5-1 11.5-1s6.333-4 7-6c.167-.667 0-2.4-2-4-2.5-2-35-23-15.5-111.5.5-1.833 5.5-5.2 21.5-4 20 1.5 55 9 84 9"/></svg>