<svg xmlns="http://www.w3.org/2000/svg" width="450" height="450" fill="none"><path fill="#FFDC25" fill-rule="evenodd" d="m185.915 17.268-22.99 84.809.172.454c35.508 93.756 41.066 199.374 39.404 240.408l-.063 1.561h42.621l.003.059 1.468-.059h.885v-.036l.644-.026-.06-1.499c-1.662-41.034 3.896-146.652 39.404-240.408l.172-.454-22.99-84.809-39.335 7.442-39.335-7.442Zm39.335 10.194-.055.29-37.11-7.02-22.01 81.192c35.098 92.965 40.951 197.287 39.482 239.576h39.386c-1.469-42.289 4.384-146.611 39.482-239.576l-22.01-81.192-37.11 7.02-.055-.29Z" clip-rule="evenodd"/><path fill="#FFDC25" d="m225.25 27.462-.055.29-37.11-7.02-22.01 81.192c35.098 92.965 40.951 197.287 39.482 239.576h39.386c-1.469-42.289 4.384-146.611 39.482-239.576l-22.01-81.192-37.11 7.02-.055-.29Z"/><path stroke="#484848" stroke-linecap="round" stroke-width="2" d="M199 99.5c6.167 14 18.1 76.6 16.5 215l9 31"/><path fill="#FAFFC5" fill-rule="evenodd" d="M225.084 69.59a.99.99 0 0 0-.332.247l-26.93 29.47.263.596c3.013 6.841 7.528 25.848 11.083 60.549 3.549 34.654 6.132 84.865 5.332 154.036l-.002.149 9.042 31.142a1 1 0 0 0 1.21.689.999.999 0 0 0 1.21-.689l9.042-31.142-.002-.149c-.8-69.171 1.783-119.382 5.332-154.036 3.555-34.701 8.07-53.708 11.083-60.549l.255-.578-25.403-29.466a.984.984 0 0 0-.322-.254 1.001 1.001 0 0 0-.861-.014Zm.394 2.416L200.172 99.7c3.139 7.603 7.527 26.781 10.985 60.548 3.557 34.721 6.14 84.963 5.345 154.115l8.248 28.411 8.248-28.411c-.795-69.152 1.788-119.394 5.345-154.115 3.461-33.795 7.853-52.977 10.993-60.567l-23.858-27.675Z" clip-rule="evenodd"/><path fill="#FAFFC5" d="M225.478 72.006 200.172 99.7c3.139 7.603 7.527 26.781 10.985 60.548 3.557 34.721 6.14 84.963 5.345 154.115l8.248 28.411 8.248-28.411c-.795-69.152 1.788-119.394 5.345-154.115 3.461-33.795 7.853-52.977 10.993-60.567l-23.858-27.675Z"/><path fill="#FBC60B" d="m225 11 11.331 35.523H273l-29.666 21.954L254.666 104 225 82.046 195.334 104l11.332-35.523L177 46.523h36.669L225 11Z"/><path fill="#484848" d="M193 343h63.5l38.5 95H155l38-95Z"/></svg>