<svg xmlns="http://www.w3.org/2000/svg" width="120" height="120" viewBox="0 0 450 450" fill="none"><ellipse cx="234.5" cy="358" fill="#FFDC25" rx="62.5" ry="20"/><rect width="170" height="18" x="150" y="398" fill="#FFDC25" rx="2"/><path fill="#484848" d="M160 358h150v40H160z"/><rect width="156" height="5" x="157" y="353" fill="#FFDC25" rx="2"/><path stroke="#FFDC25" stroke-width="3" d="M225.281 73.127c.007.034.043.267-.336.794-.376.523-1.046 1.165-2.07 1.902-2.039 1.468-5.188 3.106-9.267 4.8-8.136 3.381-19.691 6.872-32.728 9.65-13.038 2.78-25.012 4.305-33.819 4.536-4.416.116-7.959-.095-10.419-.604-1.236-.256-2.109-.569-2.666-.893-.561-.327-.623-.554-.63-.587-.007-.034-.043-.267.336-.794.376-.523 1.045-1.165 2.07-1.902 2.038-1.468 5.187-3.106 9.267-4.8 8.136-3.381 19.691-6.872 32.728-9.65 13.037-2.78 25.011-4.305 33.818-4.536 4.416-.116 7.96.095 10.42.604 1.236.256 2.109.569 2.665.893.561.327.623.554.631.587Z"/><path stroke="#FFDC25" stroke-width="3" d="M185.895 79.043c4.066 11.987 7.095 23.031 8.709 31.186.809 4.088 1.25 7.39 1.305 9.701.027 1.125-.041 1.929-.162 2.446-.411-.337-.954-.933-1.617-1.842-1.363-1.867-3.022-4.757-4.868-8.493-3.681-7.454-7.997-18.06-12.063-30.047-4.067-11.987-7.096-23.031-8.71-31.186-.809-4.088-1.25-7.39-1.305-9.702-.027-1.124.041-1.928.163-2.445.411.337.954.933 1.617 1.842 1.362 1.867 3.022 4.757 4.867 8.493 3.681 7.454 7.997 18.06 12.064 30.047Zm9.696 43.778.009-.013c-.005.01-.009.014-.009.013Zm.535-.191.015.005-.015-.005Zm-28.624-84.414-.009.012a.086.086 0 0 1 .009-.012Zm-.535.19a.054.054 0 0 1-.014-.004.06.06 0 0 1 .014.005Z"/><path stroke="#FFDC25" stroke-width="3" d="M216.5 81.5c0 21.69-15.813 39-35 39-19.187 0-35-17.31-35-39s15.813-39 35-39c19.187 0 35 17.31 35 39Z"/><path stroke="#FFDC25" stroke-width="3" d="M194.025 52.247c20.665 9.131 31.042 29.343 24.204 44.817-6.837 15.473-28.767 21.41-49.432 12.278-20.665-9.131-31.042-29.343-24.204-44.816 6.837-15.473 28.767-21.41 49.432-12.279Z"/><path fill="#FFDC25" d="M246.5 339.5h-21l3.5-4c1.6-5.6-1.333-27.667-3-38 .4-6-4.833-17.5-7.5-22.5-12.4-17.2-17.333-43.667-19-54.5-3.385-22-1.5-45 0-46.5s11.167-6.5 13.5-9c-10.4-12-18.333-44.667-21-59.5-4-4-7.333-12-8.5-15.5.4-6.8 5.833-6.5 8.5-5.5 5.5 7 4.5 6 6 9 1.2 2.4 1.167 8 1 10.5 8.4 32 19.833 46.667 24.5 50 0-2.5-.1-7.8-.5-9-.4-1.2 5.833-2.833 9-3.5 1.6.8 4.667.667 6 .5 4 0 6.667 1.667 7.5 2.5 10.5 10 3 17.902-3.5 22.5l1 3c7.6-7.6 17.5-22.167 21.5-28.5l3 3.5c13.6-15.6 24-57.5 27.5-76.5 3 57.5-25.5 94.5-27.5 97.5-1.179 1.769-3.167 5-4.5 7-4 6-6.5 6.5-10.5 4-11.5 15.5-9 12-14 18-6 6-13.167 3.333-15-.5-10.4 6-9.667 12.5-8 15 6.4 6.4 11.667 16.667 13.5 21 11.6 34.8 31.5 59.5 40 67.5-12 13.2-23.667 14.167-28 13-2.4 2.4-2 7-1.5 9.5.635 3.177 1 5.5 2.5 8 3.2 5.2 4.333 9.5 4.5 11Z"/></svg>