<svg xmlns="http://www.w3.org/2000/svg" width="120" height="120" viewBox="0 0 450 450" fill="none"><path fill="#FFDC25" d="m198.835 209-13.579 26H185a2 2 0 0 0-2 2v1h-1a1 1 0 0 0-1 1v1a1 1 0 0 0 1 1h1v3h-19a2 2 0 0 0-2 2v6a2 2 0 0 0 2 2h.428c-.329 7.291 2.688 20.943 16.891 26.466 9.012 3.505 13.701 5.663 16.141 7.397 1.209.859 1.824 1.586 2.15 2.283.326.699.39 1.424.39 2.354 0 .342-.154.726-.515 1.192-.36.466-.89.965-1.561 1.533-.42.355-.895.736-1.407 1.146-1.088.873-2.341 1.878-3.577 3.046-3.679 3.48-7.394 8.567-7.44 16.928V317H183a2 2 0 0 0-2 2v6h-3a2 2 0 0 0-2 2v3h-8a2 2 0 0 0-2 2v96a2 2 0 0 0 2 2h126a2 2 0 0 0 2-2v-96a2 2 0 0 0-2-2h-8v-3a2 2 0 0 0-2-2h-3v-6a2 2 0 0 0-2-2h-2.5v-.5l-.001-.155c-.045-8.361-3.76-13.448-7.439-16.928-1.236-1.168-2.489-2.173-3.577-3.046-.512-.41-.987-.791-1.407-1.146-.671-.568-1.201-1.067-1.561-1.533-.361-.466-.515-.85-.515-1.192 0-.93.064-1.655.39-2.354.326-.697.941-1.424 2.15-2.283 2.44-1.734 7.129-3.892 16.141-7.397 14.203-5.523 17.22-19.175 16.891-26.466H298a2 2 0 0 0 2-2v-6a2 2 0 0 0-2-2h-20v-3h1a1 1 0 0 0 1-1v-1a1 1 0 0 0-1-1h-1v-1a2 2 0 0 0-2-2h-.256l-13.579-26-11.859 3.057L258.53 235h-1.163l-8.049-22.943H234l.473 22.943h-7.946l.473-22.943h-15.318L203.633 235h-1.163l8.224-22.943L198.835 209Z"/><circle cx="231" cy="120" r="95" fill="#FFDC25"/><g clip-path="url(#a)"><rect width="201.181" height="40" x="124" y="114.904" fill="#FFDC25" rx="2" transform="rotate(-17.622 124 114.904)"/><rect width="30" height="30" x="121.748" y="121.188" fill="#fff" fill-opacity=".9" rx="2" transform="rotate(-17.622 121.748 121.188)"/><rect width="30" height="30" x="155.106" y="110.592" fill="#fff" fill-opacity=".9" rx="2" transform="rotate(-17.622 155.106 110.592)"/><rect width="30" height="30" x="188.464" y="99.997" fill="#fff" fill-opacity=".9" rx="2" transform="rotate(-17.622 188.464 99.997)"/><rect width="30" height="30" x="221.821" y="89.401" fill="#fff" fill-opacity=".9" rx="2" transform="rotate(-17.622 221.821 89.401)"/><rect width="30" height="30" x="255.179" y="78.805" fill="#fff" fill-opacity=".9" rx="2" transform="rotate(-17.622 255.179 78.805)"/><rect width="30" height="30" x="288.537" y="68.21" fill="#fff" fill-opacity=".9" rx="2" transform="rotate(-17.622 288.537 68.21)"/></g><rect width="200.181" height="39" x="124.628" y="115.229" stroke="#FFDC25" rx="1.5" transform="rotate(-17.622 124.628 115.229)"/><g clip-path="url(#b)"><rect width="65.894" height="40" x="269.188" y="120" fill="#FFDC25" rx="2" transform="rotate(27.045 269.188 120)"/><rect width="30" height="30" x="271.368" y="126.727" fill="#fff" fill-opacity=".9" rx="2" transform="rotate(27.045 271.368 126.727)"/><rect width="30" height="30" x="302.54" y="142.641" fill="#fff" fill-opacity=".9" rx="2" transform="rotate(27.045 302.54 142.641)"/><rect width="30" height="30" x="333.713" y="158.555" fill="#fff" fill-opacity=".9" rx="2" transform="rotate(27.045 333.713 158.555)"/></g><rect width="64.894" height="39" x="269.406" y="120.673" stroke="#FFDC25" rx="1.5" transform="rotate(27.045 269.406 120.673)"/><defs><clipPath id="a"><rect width="201.181" height="40" x="124" y="114.904" fill="#fff" rx="2" transform="rotate(-17.622 124 114.904)"/></clipPath><clipPath id="b"><rect width="65.894" height="40" x="269.188" y="120" fill="#fff" rx="2" transform="rotate(27.045 269.188 120)"/></clipPath></defs></svg>