<svg xmlns="http://www.w3.org/2000/svg" width="120" height="120" viewBox="0 0 450 450" fill="none"><path fill="#FFDC25" d="M226.142 62.546c-5.109 0-11.86 1.746-15.55 9.331-3.64 7.486-4.231 20.54 2.46 42.943l-.764.467a2759.348 2759.348 0 0 0-12.336 7.578c-7.139 4.413-15.15 9.42-18.592 11.768-.519.355-.961.919-1.339 1.618-.382.704-.716 1.576-1.007 2.585-.581 2.017-1 4.633-1.249 7.66-.496 6.056-.311 13.819.683 21.867.995 8.047 2.802 16.4 5.559 23.629 2.747 7.202 6.46 13.347 11.307 16.933.768.785 2.431 3.212 2.825 6.623-1 9.353-2.022 24.469-1.847 39.504.175 15.015 1.543 30.039 5.371 39.144 1.323 6.325 2.852 21.939-1.492 34.183l-.013.036-.007.037c-.851 4.424-1.112 16.2 4.538 28.306 3.488 7.474 6.074 15.387 5.766 22.955-.306 7.537-3.483 14.774-11.615 20.935l-1.186.898h28.488v-1h-25.555c7.53-6.145 10.563-13.321 10.867-20.792.317-7.807-2.347-15.894-5.859-23.419-5.535-11.86-5.279-23.386-4.469-27.658 4.429-12.52 2.845-28.368 1.505-34.734l-.01-.047-.018-.044c-3.758-8.9-5.136-23.768-5.311-38.812-.175-15.018.849-30.123 1.847-39.441l.006-.054-.006-.054c-.414-3.723-2.237-6.392-3.143-7.298l-.027-.027-.03-.022c-4.638-3.417-8.273-9.364-10.998-16.508-2.72-7.134-4.512-15.404-5.5-23.396-.988-7.992-1.169-15.686-.679-21.663.245-2.99.657-5.534 1.213-7.465.278-.965.589-1.764.925-2.385.338-.625.686-1.037 1.024-1.268 3.418-2.333 11.407-7.326 18.553-11.743 3.571-2.207 6.927-4.268 9.391-5.777l2.941-1.799.809-.494.283-.172.001-.001-.26-.427.26.427.33-.201-.111-.37c-6.791-22.57-6.119-35.413-2.629-42.587 3.46-7.114 9.759-8.769 14.65-8.769 4.892 0 11.19 1.655 14.65 8.769 3.49 7.174 4.162 20.017-2.629 42.587l-.111.37.33.201.26-.427-.26.427.001.001.283.172.809.494 2.941 1.799c2.464 1.509 5.82 3.57 9.391 5.777 7.146 4.417 15.135 9.41 18.553 11.743.338.231.686.643 1.024 1.268.336.621.647 1.42.925 2.385.556 1.931.968 4.475 1.213 7.465.49 5.977.309 13.671-.679 21.663-.988 7.992-2.779 16.262-5.5 23.396-2.725 7.144-6.36 13.091-10.997 16.508l-.031.022-.026.027c-.907.906-2.73 3.575-3.144 7.298l-.006.054.006.054c.998 9.318 2.022 24.423 1.847 39.441-.175 15.044-1.553 29.912-5.31 38.812l-.019.044-.01.047c-1.34 6.366-2.924 22.214 1.505 34.734.81 4.272 1.066 15.798-4.469 27.658-3.512 7.525-6.176 15.612-5.859 23.419.304 7.471 3.337 14.647 10.867 20.792h-25.555v1h28.488l-1.186-.898c-8.132-6.161-11.308-13.398-11.615-20.935-.307-7.568 2.278-15.481 5.766-22.955 5.65-12.106 5.389-23.882 4.538-28.306l-.007-.037-.013-.036c-4.344-12.244-2.814-27.858-1.491-34.183 3.828-9.105 5.195-24.129 5.37-39.144.175-15.035-.847-30.151-1.847-39.504.394-3.411 2.057-5.838 2.825-6.623 4.848-3.586 8.56-9.731 11.307-16.933 2.757-7.229 4.564-15.582 5.559-23.629.994-8.048 1.179-15.811.683-21.867-.249-3.027-.668-5.643-1.249-7.66-.291-1.009-.625-1.881-1.006-2.585-.379-.699-.82-1.263-1.34-1.618-3.441-2.348-11.453-7.355-18.591-11.768a2862.188 2862.188 0 0 0-12.337-7.578l-.764-.467c6.691-22.403 6.1-35.457 2.46-42.943-3.69-7.585-10.441-9.33-15.55-9.33Z"/><path fill="#FFDC25" d="M200.587 400.546h51.11c-7.53-6.145-10.563-13.321-10.867-20.792-.317-7.807 2.347-15.894 5.859-23.419 5.535-11.86 5.279-23.386 4.469-27.658-4.429-12.52-2.845-28.368-1.505-34.734l.01-.047.019-.044c3.757-8.9 5.135-23.768 5.31-38.812.175-15.018-.849-30.123-1.847-39.441l-.006-.054.006-.054c.414-3.723 2.237-6.392 3.144-7.298l.026-.027.031-.022c4.637-3.417 8.272-9.364 10.997-16.508 2.721-7.134 4.512-15.404 5.5-23.396.988-7.992 1.169-15.686.679-21.663-.245-2.99-.657-5.534-1.213-7.465-.278-.965-.589-1.764-.925-2.385-.338-.625-.686-1.037-1.024-1.268-3.418-2.333-11.407-7.326-18.553-11.743a2774.056 2774.056 0 0 0-9.391-5.777l-2.941-1.799-.809-.494-.283-.172-.001-.001-.33-.201.111-.37c6.791-22.57 6.119-35.413 2.629-42.587-3.46-7.114-9.758-8.769-14.65-8.769-4.891 0-11.19 1.655-14.65 8.769-3.49 7.174-4.162 20.017 2.629 42.587l.111.37-.33.201-.001.001-.283.172-.809.494-2.941 1.799c-2.464 1.509-5.82 3.57-9.391 5.777-7.146 4.417-15.135 9.41-18.553 11.743-.338.231-.686.643-1.024 1.268-.336.621-.647 1.42-.925 2.385-.556 1.931-.968 4.475-1.213 7.465-.49 5.977-.309 13.671.679 21.663.988 7.992 2.78 16.262 5.5 23.396 2.725 7.144 6.36 13.091 10.998 16.508l.03.022.027.027c.906.906 2.729 3.575 3.143 7.298l.006.054-.006.054c-.998 9.318-2.022 24.423-1.847 39.441.175 15.044 1.553 29.912 5.311 38.812l.018.044.01.047c1.34 6.366 2.924 22.214-1.505 34.734-.81 4.272-1.066 15.798 4.469 27.658 3.512 7.525 6.176 15.612 5.859 23.419-.304 7.471-3.337 14.647-10.867 20.792Z"/><rect width="100" height="20" x="176.5" y="401.546" fill="#FFDC25" rx="2"/><path fill="#FFDC25" d="M95.204 55.642c-4.627 97.164 70.5 153.571 107 159.404l-2.704-91.5c-13.667-6-54.04-11.567-67.296-24.904-15.5-15.596-15.5-20.596-21-33.096-6.5-44-14-51.905-16-9.904ZM355 55.642c4.627 97.164-70.5 153.571-107 159.404l2.704-91.5c13.667-6 54.04-11.567 67.296-24.904 15.5-15.596 15.5-20.596 21-33.096 6.5-44 14-51.905 16-9.904Z"/></svg>