<svg xmlns="http://www.w3.org/2000/svg" width="450" height="450" fill="none"><path fill="#FFDC25" d="M227.5 45c-7.001 0-12.918 4.642-14.841 11.015A11.948 11.948 0 0 0 206 54c-2.612 0-5.03.835-7 2.252A11.946 11.946 0 0 0 192 54c-6.627 0-12 5.373-12 12l.001.166A12.085 12.085 0 0 0 178 66c-6.627 0-12 5.373-12 12 0 1.038.132 2.045.38 3.006A12.298 12.298 0 0 0 166 81c-5.594 0-10.293 3.827-11.623 9.006A12.105 12.105 0 0 0 154 90c-6.627 0-12 5.373-12 12 0 4.573 2.558 8.549 6.322 10.574C143.494 114.127 140 118.656 140 124c0 6.627 5.373 12 12 12 3.866 0 7.305-1.828 9.5-4.668A11.979 11.979 0 0 0 171 136c3.321 0 6.327-1.349 8.5-3.529A11.964 11.964 0 0 0 188 136c4.919 0 9.147-2.96 11-7.197 1.853 4.237 6.081 7.197 11 7.197a11.97 11.97 0 0 0 9-4.063 11.97 11.97 0 0 0 9 4.063c4.091 0 7.704-2.047 9.87-5.173A11.959 11.959 0 0 0 246 134a11.97 11.97 0 0 0 9-4.063 11.97 11.97 0 0 0 9 4.063 11.94 11.94 0 0 0 6.898-2.18A11.974 11.974 0 0 0 280 136a11.94 11.94 0 0 0 6.898-2.18A11.974 11.974 0 0 0 296 138c6.627 0 12-5.373 12-12 0-4.206-2.164-7.907-5.439-10.049A19.415 19.415 0 0 0 305 106.5c0-10.622-8.492-19.26-19.057-19.495.038-.497.057-.999.057-1.505 0-10.77-8.73-19.5-19.5-19.5-.261 0-.52.005-.778.015C264.324 58.605 257.817 53 250 53c-2.898 0-5.616.77-7.96 2.117C239.852 49.21 234.168 45 227.5 45Z"/><path fill="#A52827" d="M142 144h165l-25.655 220H167.152L142 144Z"/><path fill="#3F3F3F" d="M160 366a2 2 0 0 1 2-2h126a2 2 0 0 1 2 2v13H160v-13ZM150 381a2 2 0 0 1 2-2h146a2 2 0 0 1 2 2v21a2 2 0 0 1-2 2H152a2 2 0 0 1-2-2v-21Z"/><path fill="#D9D9D9" d="M135 131a2 2 0 0 1 2-2h176a2 2 0 0 1 2 2v11a2 2 0 0 1-2 2H137a2 2 0 0 1-2-2v-11Z"/></svg>