<svg xmlns="http://www.w3.org/2000/svg" width="450" height="450" fill="none"><rect width="120" height="20" x="165" y="409" fill="#3F3F3F" rx="2"/><path fill="#484848" d="M170 371a2 2 0 0 1 2-2h106a2 2 0 0 1 2 2v38H170v-38Z"/><path fill="#FFDC25" d="M224.642 20c-5.109 0-11.86 1.746-15.55 9.331-3.64 7.485-4.231 20.54 2.46 42.943l-.764.467a2713.097 2713.097 0 0 0-12.336 7.579c-7.139 4.412-15.15 9.419-18.592 11.767-.519.355-.961.919-1.339 1.618-.382.704-.716 1.576-1.007 2.585-.581 2.017-1 4.633-1.248 7.66-.497 6.055-.312 13.819.683 21.867.994 8.047 2.801 16.4 5.558 23.629 2.747 7.202 6.46 13.347 11.307 16.933.768.785 2.432 3.212 2.825 6.623-1 9.353-2.022 24.469-1.847 39.504.175 15.015 1.543 30.039 5.371 39.144 1.323 6.325 2.852 21.939-1.492 34.183l-.013.035-.007.038c-.851 4.424-1.111 16.199 4.538 28.305 3.488 7.475 6.074 15.388 5.766 22.956-.306 7.537-3.483 14.774-11.615 20.934l-1.186.899h28.488v-1h-25.555c7.53-6.145 10.563-13.321 10.867-20.792.317-7.807-2.347-15.894-5.859-23.419-5.534-11.86-5.279-23.386-4.469-27.658 4.429-12.52 2.845-28.368 1.505-34.734l-.01-.047-.018-.044c-3.758-8.9-5.136-23.768-5.311-38.812-.175-15.019.849-30.124 1.847-39.441l.006-.054-.006-.054c-.414-3.723-2.237-6.392-3.143-7.299l-.027-.026-.03-.023c-4.638-3.416-8.272-9.363-10.998-16.508-2.72-7.133-4.512-15.403-5.5-23.395-.988-7.992-1.169-15.686-.679-21.663.245-2.99.657-5.534 1.213-7.465.278-.965.589-1.764.925-2.385.338-.625.686-1.037 1.024-1.268 3.418-2.333 11.407-7.326 18.553-11.743a2803.046 2803.046 0 0 1 12.332-7.576l.809-.494.283-.172h.001l-.26-.428.26.427.33-.201-.111-.37c-6.791-22.57-6.119-35.413-2.629-42.587 3.46-7.115 9.759-8.769 14.65-8.769 4.892 0 11.19 1.654 14.651 8.769 3.489 7.174 4.162 20.017-2.63 42.587l-.111.37.33.201.26-.427-.26.427h.001l.283.173.809.494a2803.046 2803.046 0 0 1 12.332 7.576c7.146 4.417 15.135 9.41 18.553 11.743.338.23.686.643 1.024 1.268.336.62.647 1.42.925 2.385.556 1.931.968 4.475 1.213 7.465.49 5.977.309 13.671-.679 21.663-.987 7.992-2.779 16.262-5.5 23.395-2.725 7.145-6.36 13.092-10.997 16.508l-.031.023-.026.026c-.907.907-2.73 3.576-3.144 7.299l-.006.054.006.054c.998 9.317 2.022 24.422 1.847 39.441-.175 15.044-1.553 29.912-5.31 38.812l-.019.044-.01.047c-1.34 6.366-2.924 22.214 1.505 34.734.81 4.272 1.066 15.798-4.469 27.658-3.512 7.525-6.176 15.612-5.859 23.419.304 7.471 3.338 14.647 10.867 20.792h-25.555v1h28.488l-1.186-.899c-8.132-6.16-11.308-13.397-11.615-20.934-.307-7.568 2.278-15.481 5.766-22.956 5.65-12.106 5.389-23.881 4.538-28.305l-.007-.038-.013-.035c-4.344-12.244-2.814-27.858-1.491-34.183 3.828-9.105 5.195-24.129 5.37-39.144.175-15.035-.847-30.151-1.847-39.504.394-3.411 2.057-5.838 2.825-6.623 4.848-3.586 8.56-9.731 11.307-16.933 2.757-7.229 4.564-15.582 5.559-23.629.994-8.048 1.179-15.812.683-21.867-.248-3.027-.668-5.643-1.249-7.66-.291-1.01-.625-1.881-1.006-2.585-.379-.7-.82-1.263-1.34-1.618-3.441-2.348-11.453-7.355-18.591-11.768a2812.458 2812.458 0 0 0-12.337-7.578l-.764-.467c6.692-22.403 6.101-35.458 2.46-42.943-3.69-7.585-10.441-9.331-15.55-9.331Z"/><path fill="#FFDC25" d="M199.087 358h51.11c-7.529-6.145-10.563-13.321-10.867-20.792-.317-7.807 2.347-15.894 5.859-23.419 5.535-11.86 5.279-23.386 4.469-27.658-4.429-12.52-2.845-28.368-1.505-34.734l.01-.047.019-.044c3.757-8.9 5.135-23.768 5.31-38.812.175-15.019-.849-30.124-1.847-39.441l-.006-.054.006-.054c.414-3.723 2.237-6.392 3.144-7.299l.026-.026.031-.023c4.637-3.416 8.272-9.363 10.997-16.508 2.721-7.133 4.513-15.403 5.5-23.395.988-7.992 1.169-15.686.679-21.663-.245-2.99-.657-5.534-1.213-7.465-.278-.965-.589-1.764-.925-2.385-.338-.625-.686-1.037-1.024-1.268-3.418-2.333-11.407-7.326-18.553-11.743a2803.046 2803.046 0 0 0-13.141-8.07l-.283-.172-.001-.001-.33-.201.111-.37c6.792-22.57 6.119-35.413 2.63-42.587-3.461-7.115-9.759-8.769-14.651-8.769-4.891 0-11.19 1.654-14.65 8.769-3.49 7.174-4.162 20.017 2.629 42.587l.111.37-.33.201h-.001l-.283.173-.809.494-2.941 1.8c-2.464 1.508-5.82 3.569-9.391 5.776-7.146 4.417-15.135 9.41-18.553 11.743-.338.23-.686.643-1.024 1.268-.336.62-.647 1.42-.925 2.385-.556 1.931-.968 4.475-1.213 7.465-.49 5.977-.309 13.671.679 21.663.988 7.992 2.78 16.262 5.5 23.395 2.726 7.145 6.36 13.092 10.998 16.508l.03.023.027.026c.906.907 2.729 3.576 3.143 7.299l.006.054-.006.054c-.998 9.317-2.022 24.422-1.847 39.441.175 15.044 1.553 29.912 5.311 38.812l.018.044.01.047c1.34 6.366 2.924 22.214-1.505 34.734-.81 4.272-1.065 15.798 4.469 27.658 3.512 7.525 6.176 15.612 5.859 23.419-.304 7.471-3.337 14.647-10.867 20.792ZM175 361a2 2 0 0 1 2-2h96a2 2 0 0 1 2 2v8H175v-8Z"/></svg>