<svg xmlns="http://www.w3.org/2000/svg" width="450" height="450" fill="none"><path fill="#FFDC25" d="M287.637 120.51c-1.261 18.389-10.169 34.676-23.569 45.703 3.396 32.566-18.58 98.193-31.437 128.337 8.466 5.405 14.525 15.146 15.875 26.594L296.2 340h6.591a2 2 0 0 1 2 2v38h6a2 2 0 0 1 2 2v16a2 2 0 0 1-2 2h-186a2 2 0 0 1-2-2v-16a2 2 0 0 1 2-2h5v-38a2 2 0 0 1 2-2h7.59l46.647-18.442c1.343-12.477 8.272-22.978 17.84-28.136 16.811-49.623 5.831-96.886-2.452-116.018-15.04-5.235-27.566-15.84-35.281-29.519-53.289 9.017-91.347 10.802-93.074 3.213-1.721-7.563 33.115-22.346 84.764-37.224C158.947 78.96 187.603 51 222.791 51c24.965 0 46.644 14.075 57.532 34.723 55.551-9.658 95.639-11.75 97.412-3.957 1.78 7.82-35.53 23.362-90.098 38.744Z"/></svg>